<?xml version="1.0" encoding="UTF-8" standalone="no"?>
<!DOCTYPE svg PUBLIC "-//W3C//DTD SVG 1.1//EN" "http://www.w3.org/Graphics/SVG/1.1/DTD/svg11.dtd">
<svg width="100%" height="100%" viewBox="0 0 24 24" version="1.1" xmlns="http://www.w3.org/2000/svg" xmlns:xlink="http://www.w3.org/1999/xlink" xml:space="preserve" xmlns:serif="http://www.serif.com/" style="fill-rule:evenodd;clip-rule:evenodd;stroke-linejoin:round;">
    <path d="M24,12C24,17.25 23.1,20.325 20.925,22.05C19.05,23.55 16.125,24 12,24C7.275,24 4.2,23.4 2.325,21.3C0.675,19.5 0,16.575 0,12C0,7.125 0.75,4.125 2.625,2.4C4.5,0.6 7.5,0 12,0C16.425,0 19.425,0.525 21.3,2.325C23.25,4.05 24,7.05 24,12Z" style="fill:rgb(0,101,212);fill-rule:nonzero;"/>
    <path d="M5.831,11.565C5.687,10.749 6.232,9.971 7.047,9.827L15.418,8.351C16.506,8.159 17.543,8.885 17.735,9.973L18.603,14.897C18.795,15.985 18.069,17.022 16.981,17.214L9.103,18.603C8.015,18.795 6.978,18.069 6.786,16.981L5.831,11.565Z" style="fill:white;fill-rule:nonzero;stroke:white;stroke-width:1px;"/>
    <path d="M15.661,6.848L16.153,6.761L16.153,6.761L15.661,6.848ZM13.705,5.635L13.521,5.17L13.511,5.174L13.5,5.179L13.705,5.635ZM16.398,8.146L16.153,6.761L15.169,6.935L15.413,8.32L16.398,8.146ZM16.153,6.761C16.102,6.468 15.991,6.188 15.827,5.941L14.993,6.493C15.08,6.624 15.14,6.775 15.169,6.935L16.153,6.761ZM15.827,5.941C15.663,5.694 15.45,5.484 15.2,5.329L14.672,6.179C14.796,6.255 14.906,6.362 14.993,6.493L15.827,5.941ZM15.2,5.329C14.95,5.174 14.669,5.077 14.377,5.049L14.281,6.044C14.415,6.057 14.549,6.102 14.672,6.179L15.2,5.329ZM14.377,5.049C14.086,5.021 13.793,5.062 13.521,5.17L13.89,6.1C14.014,6.05 14.147,6.031 14.281,6.044L14.377,5.049ZM13.5,5.179L6.655,8.255L7.065,9.167L13.91,6.091L13.5,5.179ZM5.218,10.97L5.218,10.971C5.218,10.971 5.218,10.971 5.218,10.971C5.218,10.971 5.218,10.971 5.218,10.972C5.218,10.972 5.218,10.972 5.218,10.972C5.218,10.972 5.218,10.972 5.219,10.972C5.219,10.973 5.219,10.973 5.219,10.973C5.219,10.973 5.219,10.973 5.219,10.973C5.219,10.973 5.219,10.974 5.219,10.974C5.219,10.974 5.219,10.974 5.219,10.974C5.219,10.974 5.219,10.974 5.219,10.974L5.219,10.976C5.219,10.976 5.219,10.976 5.219,10.976C5.219,10.976 5.219,10.976 5.219,10.977C5.219,10.977 5.219,10.977 5.219,10.977C5.219,10.977 5.219,10.977 5.219,10.977L5.22,10.979C5.22,10.979 5.22,10.979 5.22,10.979C5.22,10.979 5.22,10.979 5.22,10.979C5.22,10.98 5.22,10.98 5.22,10.98C5.22,10.98 5.22,10.98 5.22,10.98L5.22,10.982C5.22,10.982 5.22,10.982 5.22,10.982C5.22,10.982 5.22,10.983 5.22,10.983L5.221,10.984C5.221,10.985 5.221,10.985 5.221,10.985C5.221,10.985 5.221,10.985 5.221,10.985L5.221,10.987C5.221,10.987 5.221,10.987 5.221,10.987C5.221,10.987 5.221,10.988 5.221,10.988C5.221,10.988 5.221,10.988 5.221,10.988C5.221,10.988 5.221,10.988 5.221,10.988C5.221,10.989 5.221,10.989 5.221,10.989L5.222,10.991C5.222,10.991 5.222,10.991 5.222,10.991C5.222,10.991 5.222,10.992 5.222,10.992C5.222,10.992 5.222,10.992 5.222,10.992C5.222,10.992 5.222,10.992 5.222,10.993C5.222,10.993 5.222,10.993 5.222,10.993L5.223,10.996C5.223,10.996 5.223,10.996 5.223,10.997C5.223,10.997 5.223,10.997 5.223,10.997L5.223,10.998C5.223,10.998 5.223,10.999 5.223,10.999C5.223,10.999 5.223,10.999 5.223,10.999L5.223,11C5.223,11 5.223,11 5.223,11C5.223,11 5.223,11.001 5.223,11.001C5.224,11.001 5.224,11.001 5.224,11.001L5.227,11.021C5.227,11.021 5.227,11.021 5.227,11.021C5.227,11.022 5.227,11.022 5.227,11.022C5.227,11.022 5.227,11.022 5.227,11.022C5.227,11.022 5.227,11.023 5.227,11.023C5.227,11.023 5.227,11.023 5.227,11.023C5.227,11.023 5.227,11.023 5.228,11.023C5.228,11.024 5.228,11.024 5.228,11.024C5.228,11.024 5.228,11.024 5.228,11.024C5.228,11.024 5.228,11.024 5.228,11.025C5.228,11.025 5.228,11.025 5.228,11.025C5.228,11.025 5.228,11.025 5.228,11.025L5.228,11.028C5.228,11.028 5.228,11.028 5.228,11.028C5.228,11.028 5.228,11.028 5.228,11.028C5.228,11.029 5.228,11.029 5.228,11.029C5.229,11.029 5.229,11.029 5.229,11.029C5.229,11.029 5.229,11.03 5.229,11.03C5.229,11.03 5.229,11.03 5.229,11.03C5.229,11.03 5.229,11.03 5.229,11.031L5.229,11.032C5.229,11.032 5.229,11.032 5.229,11.032C5.229,11.033 5.229,11.033 5.229,11.033C5.229,11.033 5.229,11.033 5.229,11.033C5.229,11.033 5.229,11.033 5.229,11.034L5.23,11.036C5.23,11.036 5.23,11.036 5.23,11.036C5.23,11.036 5.23,11.036 5.23,11.036C5.23,11.036 5.23,11.037 5.23,11.037L5.23,11.038C5.23,11.038 5.23,11.039 5.23,11.039C5.23,11.039 5.23,11.039 5.23,11.039C5.23,11.039 5.23,11.039 5.23,11.039L5.231,11.042C5.231,11.042 5.231,11.042 5.231,11.042C5.231,11.042 5.231,11.042 5.231,11.043C5.231,11.043 5.231,11.043 5.231,11.043L5.232,11.047C5.232,11.047 5.232,11.047 5.232,11.048C5.232,11.048 5.232,11.048 5.232,11.048L5.232,11.051C5.232,11.051 5.232,11.051 5.232,11.051L5.234,11.058C5.234,11.058 5.234,11.058 5.234,11.059C5.234,11.059 5.234,11.059 5.234,11.059C5.234,11.059 5.234,11.059 5.234,11.059C5.234,11.059 5.234,11.06 5.234,11.06L5.235,11.068C5.235,11.068 5.235,11.068 5.235,11.068L5.236,11.072C5.236,11.072 5.236,11.072 5.236,11.072L5.237,11.075C5.237,11.076 5.237,11.076 5.237,11.076L5.237,11.078C5.237,11.078 5.237,11.078 5.237,11.078C5.237,11.078 5.237,11.078 5.237,11.078C5.237,11.078 5.237,11.079 5.237,11.079L5.238,11.082C5.238,11.082 5.238,11.083 5.238,11.083L5.239,11.089C5.239,11.089 5.239,11.089 5.239,11.09L5.239,11.09C5.239,11.09 5.239,11.091 5.239,11.091L5.245,11.122C5.245,11.122 5.245,11.122 5.245,11.122L5.251,11.159L6.236,10.986C6.236,10.985 6.236,10.985 6.236,10.985L6.235,10.981C6.235,10.98 6.235,10.98 6.235,10.98L6.234,10.971C6.234,10.971 6.234,10.97 6.234,10.97L6.227,10.933C6.227,10.933 6.227,10.933 6.227,10.933L6.226,10.929C6.226,10.928 6.226,10.928 6.226,10.928L6.223,10.912C6.223,10.912 6.223,10.911 6.223,10.911C6.223,10.911 6.223,10.911 6.223,10.911C6.223,10.911 6.223,10.911 6.223,10.911L6.222,10.903C6.222,10.903 6.222,10.903 6.222,10.902L6.22,10.893C6.22,10.893 6.22,10.893 6.22,10.892L6.219,10.89C6.219,10.89 6.219,10.89 6.219,10.889L6.219,10.887C6.219,10.887 6.219,10.887 6.219,10.886L6.218,10.883C6.218,10.883 6.218,10.883 6.218,10.883L6.218,10.88C6.218,10.879 6.218,10.879 6.218,10.879L6.217,10.877C6.217,10.877 6.217,10.877 6.217,10.877L6.217,10.875C6.217,10.875 6.217,10.875 6.217,10.875C6.217,10.875 6.217,10.875 6.217,10.875L6.216,10.873C6.216,10.873 6.216,10.872 6.216,10.872L6.216,10.871C6.216,10.871 6.216,10.871 6.216,10.87C6.216,10.87 6.216,10.87 6.216,10.87C6.216,10.87 6.216,10.87 6.216,10.87L6.215,10.867C6.215,10.867 6.215,10.867 6.215,10.867C6.215,10.867 6.215,10.867 6.215,10.867C6.215,10.866 6.215,10.866 6.215,10.866L6.215,10.862C6.215,10.862 6.214,10.862 6.214,10.862C6.214,10.862 6.214,10.862 6.214,10.862C6.214,10.861 6.214,10.861 6.214,10.861C6.214,10.861 6.214,10.861 6.214,10.861L6.214,10.859C6.214,10.859 6.214,10.859 6.214,10.858L6.214,10.857C6.214,10.857 6.214,10.857 6.214,10.856L6.213,10.852C6.213,10.852 6.213,10.852 6.213,10.852C6.213,10.852 6.213,10.852 6.213,10.852C6.213,10.852 6.213,10.851 6.213,10.851C6.213,10.851 6.213,10.851 6.213,10.851C6.213,10.851 6.212,10.851 6.212,10.851C6.212,10.85 6.212,10.85 6.212,10.85C6.212,10.85 6.212,10.85 6.212,10.85C6.212,10.85 6.212,10.85 6.212,10.849C6.212,10.849 6.212,10.849 6.212,10.849C6.212,10.849 6.212,10.849 6.212,10.849C6.212,10.848 6.212,10.848 6.212,10.848C6.212,10.848 6.212,10.848 6.212,10.848L6.209,10.831C6.209,10.831 6.209,10.83 6.209,10.83C6.209,10.83 6.209,10.83 6.209,10.83C6.209,10.83 6.209,10.83 6.209,10.829C6.209,10.829 6.209,10.829 6.209,10.829C6.209,10.829 6.209,10.829 6.209,10.829C6.209,10.829 6.209,10.828 6.209,10.828L6.208,10.827C6.208,10.827 6.208,10.827 6.208,10.827L6.208,10.825C6.208,10.825 6.208,10.825 6.208,10.825C6.208,10.824 6.208,10.824 6.208,10.824L6.207,10.821C6.207,10.821 6.207,10.821 6.207,10.821C6.207,10.821 6.207,10.821 6.207,10.82C6.207,10.82 6.207,10.82 6.207,10.82L6.207,10.819C6.207,10.819 6.207,10.819 6.207,10.819L6.207,10.818C6.207,10.818 6.207,10.817 6.207,10.817C6.207,10.817 6.207,10.817 6.207,10.817L6.206,10.815C6.206,10.815 6.206,10.815 6.206,10.814L6.206,10.814C6.206,10.813 6.206,10.813 6.206,10.813C6.206,10.813 6.206,10.813 6.206,10.813L6.206,10.811C6.205,10.811 6.205,10.811 6.205,10.811C6.205,10.811 6.205,10.81 6.205,10.81C6.205,10.81 6.205,10.81 6.205,10.81C6.205,10.81 6.205,10.81 6.205,10.81L6.205,10.808C6.205,10.808 6.205,10.807 6.205,10.807C6.205,10.807 6.205,10.807 6.205,10.807C6.205,10.807 6.205,10.807 6.205,10.807C6.205,10.806 6.205,10.806 6.205,10.806L6.204,10.805C6.204,10.804 6.204,10.804 6.204,10.804C6.204,10.804 6.204,10.804 6.204,10.804L6.204,10.803C6.204,10.802 6.204,10.802 6.204,10.802C6.204,10.802 6.204,10.802 6.204,10.802C6.204,10.802 6.204,10.801 6.204,10.801L6.203,10.8C6.203,10.799 6.203,10.799 6.203,10.799C6.203,10.799 6.203,10.799 6.203,10.799C6.203,10.799 6.203,10.798 6.203,10.798C6.203,10.798 6.203,10.798 6.203,10.798C6.203,10.798 6.203,10.798 6.203,10.798C6.203,10.797 6.203,10.797 6.203,10.797C6.203,10.797 6.203,10.797 6.203,10.797L6.203,10.796L5.218,10.97ZM5.251,11.159L5.338,11.652L6.323,11.478L6.236,10.986L5.251,11.159ZM6.655,8.255C5.611,8.724 5.019,9.842 5.218,10.97L6.203,10.796C6.084,10.119 6.439,9.448 7.065,9.167L6.655,8.255Z" style="fill:url(#_Linear1);fill-rule:nonzero;"/>
    <path d="M16.084,13.565C15.938,13.591 15.787,13.572 15.652,13.513C15.516,13.453 15.401,13.354 15.321,13.229C15.241,13.104 15.201,12.958 15.204,12.81C15.207,12.662 15.254,12.518 15.339,12.396C15.424,12.275 15.544,12.181 15.682,12.127C15.82,12.073 15.971,12.062 16.116,12.094C16.261,12.126 16.393,12.2 16.495,12.307C16.598,12.415 16.667,12.55 16.692,12.696C16.727,12.892 16.682,13.093 16.568,13.256C16.454,13.419 16.28,13.53 16.084,13.565Z" style="fill:rgb(0,101,212);fill-rule:nonzero;stroke:rgb(0,101,212);stroke-width:1px;stroke-linejoin:miter;"/>
    <defs>
        <linearGradient id="_Linear1" x1="0" y1="0" x2="1" y2="0" gradientUnits="userSpaceOnUse" gradientTransform="matrix(7.0091,2.31808,-2.31808,7.0091,10.9866,9.13242)"><stop offset="0" style="stop-color:white;stop-opacity:1"/><stop offset="1" style="stop-color:white;stop-opacity:0"/></linearGradient>
    </defs>
</svg>
